# xmcd
#
# Track frame offsets:
#	150
#	18413
#	36645
#	55665
#	69898
#	83068
#	101508
#	111225
#	125225
#	141343
#	157803
#	175948
#	190363
#	206970
#
# Disc length: 2942
#
# Revision: 2
# Processed by: cddbd v1.5.1PL0 Copyright (c) Steve Scherf et al.
# Submitted via: dBpowerAMP V4.0
# Normalized: r0:TDELIM( - );r1:TSWAP
#
DISCID=c90b7c0e
DTITLE=Mr.Music Country - Mr. Music Country 08-95
DYEAR=1995
DGENRE=Country
TTITLE0=Doug Supernaw,Jennings,Pride,Haggard and David Allan Coe - You Never Even Call Me By My Name
TTITLE1=Chris Wall - Roadhouse Whiskey
TTITLE2=Gary P.Nunn - Uncle Bud
TTITLE3=Aaron Tippin - Mission From Hank
TTITLE4=Dennis Robbins - Travelin' Music
TTITLE5=Vollie Holt - Into My Life
TTITLE6=Clay Walker - If I Could Make A Living
TTITLE7=Kenny Rogers - Missing You
TTITLE8=Rednex - Mary Lou
TTITLE9=Matraca Berg - Appalachian Rain
TTITLE10=John Anderson - Bend It Until It Breaks
TTITLE11=Danny Foreman - Louisiana Roughneck
TTITLE12=Big Sam Frazier - Mama Kept The Lamp Light Burning
TTITLE13=Radney Foster - Everybody Gets The Blues
EXTD=Frode Høydal
EXTT0=
EXTT1=
EXTT2=
EXTT3=
EXTT4=
EXTT5=
EXTT6=
EXTT7=
EXTT8=
EXTT9=
EXTT10=
EXTT11=
EXTT12=
EXTT13=
PLAYORDER=
